<?xml version="1.0" standalone="no"?>
<!DOCTYPE svg PUBLIC "-//W3C//DTD SVG 20010904//EN"
 "http://www.w3.org/TR/2001/REC-SVG-20010904/DTD/svg10.dtd">
<svg version="1.0" xmlns="http://www.w3.org/2000/svg"
 width="600.000000pt" height="600.000000pt" viewBox="0 0 600.000000 600.000000"
 preserveAspectRatio="xMidYMid meet">
<metadata>
Created by potrace 1.14, written by Peter Selinger 2001-2017
</metadata>
<g transform="translate(0.000000,600.000000) scale(0.100000,-0.100000)"
fill="#000000" stroke="none">
<path d="M2790 5639 c-215 -32 -435 -100 -595 -184 -114 -60 -268 -151 -338
-201 -109 -78 -286 -255 -441 -440 -14 -18 -26 -36 -26 -42 0 -6 -4 -12 -9
-14 -20 -8 -211 -342 -211 -371 0 -2 -9 -25 -20 -51 -12 -25 -21 -49 -21 -53
-1 -5 -6 -17 -11 -27 -38 -71 -124 -378 -143 -511 -3 -23 -7 -51 -10 -63 -23
-124 -24 -698 0 -820 6 -35 14 -125 20 -242 3 -58 8 -118 10 -135 13 -81 27
-757 17 -797 -2 -10 -20 -19 -50 -24 -72 -11 -168 -44 -264 -88 -59 -28 -194
-158 -183 -176 4 -6 2 -10 -3 -10 -20 0 -50 -117 -49 -187 2 -57 7 -74 30
-104 15 -20 24 -39 20 -42 -7 -8 32 -88 56 -114 10 -10 18 -21 19 -25 4 -12
82 -132 90 -138 5 -3 18 -22 31 -42 12 -21 26 -38 29 -38 4 0 12 -12 19 -26
11 -25 11 -25 -5 -11 -12 11 -28 14 -52 10 -58 -9 -72 -20 -66 -56 2 -18 5
-32 6 -32 1 0 3 -7 5 -16 6 -33 17 -59 23 -59 4 0 19 -11 35 -24 15 -13 43
-34 62 -47 24 -16 33 -29 28 -39 -3 -8 -8 -36 -11 -61 -4 -47 -1 -53 43 -84
20 -13 19 -14 -7 -24 -20 -7 -29 -19 -33 -44 -9 -46 4 -66 64 -102 29 -17 55
-42 62 -58 l11 -27 1851 2 1851 3 11 39 11 38 14 -41 c11 -35 17 -41 42 -41
32 0 34 8 12 70 -19 55 -73 261 -81 310 -6 37 -6 44 -17 130 -12 93 -15 130
-23 255 -9 146 -9 557 0 680 3 50 9 123 11 163 3 41 7 90 10 110 3 21 8 64 11
97 8 81 13 133 19 175 3 19 8 58 11 85 3 28 10 75 15 105 10 55 17 102 26 175
3 22 7 47 9 55 5 19 18 109 19 133 0 9 3 17 6 17 3 0 6 13 7 28 2 26 5 47 18
105 3 12 7 33 10 47 2 14 10 50 16 80 6 30 13 62 14 70 2 8 4 15 5 15 1 0 3 9
5 20 8 54 17 91 25 99 9 9 6 -370 -5 -499 -3 -44 -8 -105 -10 -135 -24 -286
-24 -884 -1 -1005 2 -11 7 -49 11 -85 21 -205 83 -471 147 -640 45 -116 128
-265 197 -350 11 -14 21 -31 21 -38 0 -7 -29 -69 -65 -139 -36 -69 -65 -128
-65 -130 0 -7 56 -2 70 7 8 5 11 10 6 10 -5 0 -3 8 5 18 8 9 35 56 58 104 l44
87 45 -39 c24 -22 48 -37 53 -34 17 10 9 -12 -20 -58 -16 -25 -27 -49 -24 -52
4 -3 1 -6 -5 -6 -7 0 -12 -6 -12 -14 0 -8 -6 -17 -12 -19 -7 -3 125 -6 294 -6
194 -1 309 3 313 9 3 5 8 18 10 27 1 10 10 52 18 93 8 41 15 82 16 90 0 8 4
35 8 60 15 92 8 506 -11 590 -3 14 -8 43 -10 65 -7 48 -14 91 -22 125 -3 14
-8 36 -10 48 -6 30 -30 117 -68 247 -2 6 -8 23 -14 38 -7 16 -12 32 -12 36 0
11 -88 237 -117 301 -14 30 -27 63 -28 72 -2 9 -8 25 -13 35 -5 10 -17 38 -25
63 -233 680 -306 877 -395 1070 -17 36 -35 90 -41 120 -15 77 -19 99 -26 120
-3 10 -8 27 -10 37 -2 10 -13 45 -24 77 -12 33 -20 61 -18 63 2 2 28 -2 58 -7
101 -19 208 -13 277 15 19 8 44 15 56 15 30 1 69 39 89 88 23 57 22 174 -1
227 -17 37 -17 41 -1 75 16 32 17 69 6 125 -2 11 2 29 9 40 8 12 16 32 18 45
2 14 5 25 6 25 7 0 4 67 -2 71 -5 3 -6 10 -2 15 3 5 0 16 -6 24 -7 8 -10 15
-7 15 3 0 -5 26 -19 58 -36 80 -58 122 -64 122 -3 0 -11 9 -17 19 -11 17 -2
29 78 109 96 96 98 103 29 116 -19 3 -46 8 -60 11 -82 17 -165 23 -326 21
l-181 -1 59 116 c33 64 60 126 61 137 0 11 5 18 9 16 4 -3 8 0 8 6 0 7 6 26
14 43 27 58 145 382 149 407 2 11 6 23 10 26 13 13 7 24 -12 24 -30 0 -251
-81 -251 -92 0 -5 -5 -6 -10 -3 -6 4 -23 -1 -38 -11 -15 -10 -29 -19 -32 -19
-28 -4 -198 -126 -206 -147 -3 -10 -9 -17 -14 -15 -10 2 -79 -70 -122 -130
-24 -33 -34 -40 -45 -32 -7 6 -13 18 -13 25 0 8 -4 14 -8 14 -4 0 -15 13 -25
29 -9 16 -32 46 -49 67 -52 60 -205 214 -213 214 -4 0 -18 11 -31 26 -13 14
-24 21 -24 17 0 -4 -4 -3 -8 2 -25 35 -422 215 -474 215 -9 0 -19 4 -22 9 -6
9 -61 18 -161 27 -33 3 -78 12 -100 19 -22 7 -65 16 -95 20 -30 3 -71 10 -91
14 -47 11 -429 10 -499 0z m2696 -1960 c4 -6 9 -36 11 -66 5 -59 -9 -108 -35
-117 -9 -4 -30 -13 -45 -22 -15 -8 -47 -17 -70 -19 -39 -4 -40 -3 -22 10 35
26 85 79 85 91 0 7 5 14 10 16 6 2 12 22 14 45 4 57 33 92 52 62z m-386 -1289
c8 -19 24 -57 36 -85 12 -27 38 -90 58 -140 20 -49 41 -99 46 -110 19 -42 71
-179 120 -315 41 -114 62 -412 45 -625 -3 -38 -6 -77 -6 -85 -1 -8 -5 -44 -11
-80 -5 -36 -12 -80 -14 -99 -3 -19 -7 -38 -11 -44 -3 -5 -7 -24 -9 -41 -3 -40
-12 -79 -24 -111 -5 -14 -7 -25 -4 -25 4 0 2 -6 -4 -13 -6 -7 -13 -24 -15 -37
-2 -14 -8 -36 -14 -50 -5 -14 -21 -56 -34 -94 l-23 -68 -46 50 c-59 65 -68 77
-111 142 -74 114 -103 184 -129 315 -5 28 -11 59 -14 70 -2 11 -7 49 -11 85
-4 36 -9 79 -11 95 -6 43 -6 319 1 390 9 106 16 165 35 275 9 51 13 79 26 155
2 17 18 95 35 175 16 80 31 159 34 175 2 17 8 45 14 63 11 38 11 36 11 64 0
28 12 14 30 -32z m-3693 -437 c-3 -10 -5 -4 -5 12 0 17 2 24 5 18 2 -7 2 -21
0 -30z m6 -36 c3 -8 2 -20 -3 -26 -5 -9 -7 -4 -7 13 0 29 2 32 10 13z m2 -98
c2 -24 7 -77 10 -118 4 -41 8 -78 11 -82 2 -4 0 -10 -6 -14 -5 -3 -10 -3 -11
2 -2 19 -8 94 -13 177 -6 91 0 115 9 35z m146 -46 c1 -41 8 -96 23 -174 7 -38
10 -69 7 -69 -3 0 -15 7 -26 16 -18 13 -20 27 -20 134 0 66 3 120 7 120 4 0 8
-12 9 -27z m-454 -85 c-3 -8 -6 -5 -6 6 -1 11 2 17 5 13 3 -3 4 -12 1 -19z
m4399 -588 c12 -144 5 -463 -10 -489 -2 -3 -7 -26 -10 -51 -8 -57 -10 -65 -25
-120 -8 -25 -14 -49 -15 -55 -4 -19 -39 -110 -47 -119 -4 -4 -30 5 -58 20 -49
28 -65 57 -44 78 4 3 8 12 10 19 1 7 22 69 46 140 24 70 43 127 41 127 -1 0 2
15 7 33 6 17 12 40 14 50 2 10 6 26 9 35 3 9 8 37 11 62 4 25 10 63 15 85 10
46 22 137 24 180 1 17 4 35 7 40 3 6 5 23 4 38 -1 15 2 24 6 20 4 -4 11 -46
15 -93z m-982 -482 c4 -17 2 -28 -4 -28 -5 0 -10 14 -10 32 0 36 4 35 14 -4z
m69 -354 c3 -17 10 -40 16 -51 5 -11 8 -23 5 -26 -3 -3 -1 -14 5 -25 13 -24 2
-30 -41 -24 -32 5 -34 13 -16 107 13 67 23 73 31 19z"/>
</g>
</svg>
